<svg width="14" height="13" viewBox="0 0 14 13" fill="none" xmlns="http://www.w3.org/2000/svg">
<path fill-rule="evenodd" clip-rule="evenodd" d="M4.73534 1.03267C5.01664 0.708153 5.36449 0.447971 5.75525 0.269788C6.14601 0.0916045 6.57053 -0.000406875 7 1.35245e-06C7.90467 1.35245e-06 8.71534 0.400001 9.26467 1.03267C9.69313 1.00207 10.1232 1.06406 10.5255 1.2144C10.9279 1.36475 11.2932 1.59994 11.5967 1.904C11.9006 2.20738 12.1357 2.57258 12.2861 2.97484C12.4364 3.37709 12.4985 3.80698 12.468 4.23533C12.7924 4.5167 13.0525 4.86457 13.2305 5.25533C13.4086 5.64609 13.5005 6.07059 13.5 6.5C13.5004 6.92947 13.4084 7.354 13.2302 7.74476C13.052 8.13552 12.7919 8.48336 12.4673 8.76467C12.4978 9.19302 12.4357 9.62291 12.2854 10.0252C12.1351 10.4274 11.8999 10.7926 11.596 11.096C11.2926 11.3999 10.9274 11.6351 10.5252 11.7854C10.1229 11.9357 9.69302 11.9978 9.26467 11.9673C8.98336 12.2919 8.63552 12.552 8.24476 12.7302C7.854 12.9084 7.42947 13.0004 7 13C6.57053 13.0004 6.14601 12.9084 5.75525 12.7302C5.36449 12.552 5.01664 12.2919 4.73534 11.9673C4.30692 11.998 3.87692 11.9361 3.47454 11.7859C3.07216 11.6357 2.70682 11.4006 2.40334 11.0967C2.09931 10.7932 1.86415 10.4279 1.7138 10.0255C1.56346 9.62315 1.50145 9.19313 1.532 8.76467C1.20761 8.4833 0.947552 8.13543 0.769485 7.74467C0.591418 7.35392 0.499511 6.92942 0.500002 6.5C0.500002 5.59534 0.900002 4.78467 1.53267 4.23533C1.50217 3.80698 1.5642 3.37708 1.71455 2.97482C1.86489 2.57255 2.10003 2.20735 2.404 1.904C2.70735 1.60003 3.07255 1.36489 3.47482 1.21455C3.87708 1.0642 4.30698 1.00217 4.73534 1.03267ZM9.40667 5.29067C9.44667 5.23737 9.47561 5.17661 9.49179 5.11197C9.50798 5.04732 9.51108 4.9801 9.50091 4.91424C9.49074 4.84838 9.4675 4.78522 9.43257 4.72847C9.39764 4.67172 9.35172 4.62252 9.29751 4.58377C9.24329 4.54502 9.18188 4.5175 9.11688 4.50282C9.05187 4.48814 8.98459 4.48661 8.91899 4.49831C8.85338 4.51001 8.79078 4.5347 8.73486 4.57094C8.67893 4.60718 8.63082 4.65423 8.59334 4.70934L6.436 7.72934L5.35334 6.64667C5.25855 6.55835 5.13319 6.51027 5.00365 6.51255C4.87412 6.51484 4.75053 6.56731 4.65892 6.65892C4.56731 6.75053 4.51484 6.87412 4.51255 7.00365C4.51027 7.13319 4.55835 7.25855 4.64667 7.35334L6.14667 8.85334C6.198 8.90462 6.25987 8.94413 6.32799 8.9691C6.39612 8.99407 6.46886 9.00392 6.54118 8.99796C6.61349 8.99199 6.68364 8.97036 6.74676 8.93457C6.80987 8.89877 6.86444 8.84967 6.90667 8.79067L9.40667 5.29067Z" fill="#FFE1BD"/>
</svg>
